<svg xmlns="http://www.w3.org/2000/svg" width="48" height="64" viewBox="0 0 48 64"><!-- Original vector pixel-style protagonist --><path fill="#151b1d" d="M12 58h24l4-27-6-12H14L8 31z"/><path fill="#d9c59c" d="M17 8h14v14H17z"/><path fill="#594536" d="M14 5h20v8H14z"/><path fill="#8a7553" d="M14 23h20l5 25H9z"/><path fill="#d3a14d" d="M20 26h8v19h-8z"/><path fill="#2e3e42" d="M8 31h7v18H8zm25 0h7v18h-7z"/><path fill="#4c5254" d="M14 48h8v13h-8zm12 0h8v13h-8z"/><path fill="#eddbad" d="M20 13h3v3h-3zm6 0h3v3h-3z"/></svg>
